<?xml version="1.0" encoding="UTF-8"?>
<svg width="700pt" height="700pt" version="1.1" viewBox="0 0 700 700" xmlns="http://www.w3.org/2000/svg" xmlns:xlink="http://www.w3.org/1999/xlink">
 <defs>
  <symbol id="m" overflow="visible">
   <path d="m29.312-1.75c-1.5117 0.78125-3.0898 1.3711-4.7344 1.7656-1.6367 0.40625-3.3398 0.60938-5.1094 0.60938-5.3125 0-9.5273-1.4844-12.641-4.4531-3.1055-2.9688-4.6562-7-4.6562-12.094s1.5508-9.125 4.6562-12.094c3.1133-2.9688 7.3281-4.4531 12.641-4.4531 1.7695 0 3.4727 0.19922 5.1094 0.59375 1.6445 0.39844 3.2227 0.99219 4.7344 1.7812v6.5938c-1.5312-1.0391-3.0391-1.8008-4.5156-2.2812-1.4805-0.48828-3.0391-0.73438-4.6719-0.73438-2.9375 0-5.2461 0.94531-6.9219 2.8281-1.6797 1.875-2.5156 4.4648-2.5156 7.7656 0 3.293 0.83594 5.8828 2.5156 7.7656 1.6758 1.875 3.9844 2.8125 6.9219 2.8125 1.6328 0 3.1914-0.23828 4.6719-0.71875 1.4766-0.48828 2.9844-1.2539 4.5156-2.2969z"/>
  </symbol>
  <symbol id="e" overflow="visible">
   <path d="m21.453-17.406c-0.67969-0.3125-1.3516-0.53906-2.0156-0.6875-0.65625-0.15625-1.3203-0.23438-1.9844-0.23438-1.9688 0-3.4844 0.63281-4.5469 1.8906-1.0547 1.2617-1.5781 3.0703-1.5781 5.4219v11.016h-7.6562v-23.922h7.6562v3.9219c0.97656-1.5625 2.1016-2.7031 3.375-3.4219 1.2812-0.71875 2.8125-1.0781 4.5938-1.0781 0.25 0 0.52344 0.011719 0.82812 0.03125 0.30078 0.023438 0.73438 0.070312 1.2969 0.14062z"/>
  </symbol>
  <symbol id="d" overflow="visible">
   <path d="m27.562-12.031v2.1875h-17.891c0.1875 1.793 0.83203 3.1367 1.9375 4.0312 1.1133 0.89844 2.6719 1.3438 4.6719 1.3438 1.6016 0 3.25-0.23438 4.9375-0.70312 1.6875-0.47656 3.4219-1.2031 5.2031-2.1719v5.8906c-1.8047 0.6875-3.6094 1.2031-5.4219 1.5469-1.8125 0.35156-3.6211 0.53125-5.4219 0.53125-4.3359 0-7.7031-1.0977-10.109-3.2969-2.3984-2.207-3.5938-5.2969-3.5938-9.2656 0-3.9062 1.1758-6.9727 3.5312-9.2031 2.3633-2.2383 5.6094-3.3594 9.7344-3.3594 3.7578 0 6.7695 1.1367 9.0312 3.4062 2.2578 2.2617 3.3906 5.2812 3.3906 9.0625zm-7.8594-2.5312c0-1.457-0.42969-2.6289-1.2812-3.5156-0.84375-0.89453-1.9492-1.3438-3.3125-1.3438-1.4922 0-2.6992 0.41797-3.625 1.25-0.91797 0.83594-1.4922 2.0391-1.7188 3.6094z"/>
  </symbol>
  <symbol id="b" overflow="visible">
   <path d="m14.391-10.766c-1.5938 0-2.793 0.27344-3.5938 0.8125-0.80469 0.54297-1.2031 1.3398-1.2031 2.3906 0 0.96875 0.32031 1.7305 0.96875 2.2812 0.64453 0.54297 1.5469 0.8125 2.7031 0.8125 1.4375 0 2.6445-0.51562 3.625-1.5469 0.98828-1.0312 1.4844-2.3203 1.4844-3.875v-0.875zm11.688-2.8906v13.656h-7.7031v-3.5469c-1.0312 1.4492-2.1875 2.5078-3.4688 3.1719s-2.8398 1-4.6719 1c-2.4805 0-4.4961-0.72266-6.0469-2.1719-1.543-1.4453-2.3125-3.3203-2.3125-5.625 0-2.8125 0.96094-4.8672 2.8906-6.1719 1.9375-1.3125 4.9688-1.9688 9.0938-1.9688h4.5156v-0.60938c0-1.207-0.48047-2.0938-1.4375-2.6562-0.94922-0.5625-2.4375-0.84375-4.4688-0.84375-1.6367 0-3.1562 0.16797-4.5625 0.5-1.4062 0.32422-2.7188 0.8125-3.9375 1.4688v-5.8281c1.6445-0.40625 3.2891-0.70703 4.9375-0.90625 1.6562-0.20703 3.3047-0.3125 4.9531-0.3125 4.3203 0 7.4375 0.85547 9.3438 2.5625 1.9141 1.6992 2.875 4.4609 2.875 8.2812z"/>
  </symbol>
  <symbol id="c" overflow="visible">
   <path d="m12.031-30.719v6.7969h7.875v5.4688h-7.875v10.141c0 1.1172 0.21875 1.8711 0.65625 2.2656 0.4375 0.38672 1.3125 0.57812 2.625 0.57812h3.9375v5.4688h-6.5625c-3.0234 0-5.1641-0.62891-6.4219-1.8906-1.2617-1.2578-1.8906-3.3984-1.8906-6.4219v-10.141h-3.7969v-5.4688h3.7969v-6.7969z"/>
  </symbol>
  <symbol id="a" overflow="visible">
   <path d="m19.953-20.422v-12.812h7.6875v33.234h-7.6875v-3.4531c-1.0547 1.4062-2.2148 2.4375-3.4844 3.0938-1.2734 0.65625-2.7422 0.98438-4.4062 0.98438-2.9492 0-5.3711-1.1719-7.2656-3.5156-1.8867-2.3438-2.8281-5.3594-2.8281-9.0469s0.94141-6.7031 2.8281-9.0469c1.8945-2.3438 4.3164-3.5156 7.2656-3.5156 1.6562 0 3.1172 0.33594 4.3906 1 1.2812 0.65625 2.4453 1.6836 3.5 3.0781zm-5.0469 15.484c1.6445 0 2.8945-0.59766 3.75-1.7969 0.86328-1.1953 1.2969-2.9297 1.2969-5.2031 0-2.2812-0.43359-4.0195-1.2969-5.2188-0.85547-1.1953-2.1055-1.7969-3.75-1.7969-1.625 0-2.8711 0.60156-3.7344 1.7969-0.85547 1.1992-1.2812 2.9375-1.2812 5.2188 0 2.2734 0.42578 4.0078 1.2812 5.2031 0.86328 1.1992 2.1094 1.7969 3.7344 1.7969z"/>
  </symbol>
  <symbol id="h" overflow="visible">
   <path d="m16.406-4.9375c1.6328 0 2.8828-0.59766 3.75-1.7969 0.86328-1.1953 1.2969-2.9297 1.2969-5.2031 0-2.2812-0.43359-4.0195-1.2969-5.2188-0.86719-1.1953-2.1172-1.7969-3.75-1.7969-1.6367 0-2.8906 0.60547-3.7656 1.8125-0.875 1.1992-1.3125 2.9336-1.3125 5.2031 0 2.2617 0.4375 3.9961 1.3125 5.2031 0.875 1.1992 2.1289 1.7969 3.7656 1.7969zm-5.0781-15.484c1.0508-1.3945 2.2188-2.4219 3.5-3.0781 1.2812-0.66406 2.7539-1 4.4219-1 2.9453 0 5.3672 1.1719 7.2656 3.5156 1.8945 2.3438 2.8438 5.3594 2.8438 9.0469s-0.94922 6.7031-2.8438 9.0469c-1.8984 2.3438-4.3203 3.5156-7.2656 3.5156-1.668 0-3.1406-0.33594-4.4219-1s-2.4492-1.6914-3.5-3.0781v3.4531h-7.6562v-33.234h7.6562z"/>
  </symbol>
  <symbol id="g" overflow="visible">
   <path d="m0.53125-23.922h7.6562l6.4219 16.234 5.4688-16.234h7.6562l-10.062 26.188c-1.0117 2.6641-2.1953 4.5234-3.5469 5.5781-1.3438 1.0625-3.1211 1.5938-5.3281 1.5938h-4.4219v-5.0156h2.3906c1.3008 0 2.2422-0.21094 2.8281-0.625 0.59375-0.40625 1.0547-1.1484 1.3906-2.2188l0.20312-0.65625z"/>
  </symbol>
  <symbol id="f" overflow="visible">
   <path d="m23.375-5.8125h-12.859l-2.0312 5.8125h-8.2656l11.812-31.891h9.7969l11.812 31.891h-8.2656zm-10.812-5.9219h8.7344l-4.3594-12.688z"/>
  </symbol>
  <symbol id="l" overflow="visible">
   <path d="m19.422-33.234v5.0156h-4.2344c-1.0859 0-1.8398 0.19922-2.2656 0.59375-0.42969 0.38672-0.64062 1.0625-0.64062 2.0312v1.6719h6.5312v5.4688h-6.5312v18.453h-7.6406v-18.453h-3.8125v-5.4688h3.8125v-1.6719c0-2.6016 0.72266-4.5234 2.1719-5.7656 1.457-1.25 3.707-1.875 6.75-1.875z"/>
  </symbol>
  <symbol id="k" overflow="visible">
   <path d="m4.0156-31.891h8.2188v19.109c0 2.6367 0.42969 4.5234 1.2969 5.6562 0.86328 1.1367 2.2695 1.7031 4.2188 1.7031 1.9688 0 3.3789-0.56641 4.2344-1.7031 0.86328-1.1328 1.2969-3.0195 1.2969-5.6562v-19.109h8.2344v19.109c0 4.5234-1.1367 7.8867-3.4062 10.094-2.2617 2.2109-5.7148 3.3125-10.359 3.3125-4.625 0-8.0742-1.1016-10.344-3.3125-2.2617-2.207-3.3906-5.5703-3.3906-10.094z"/>
  </symbol>
  <symbol id="j" overflow="visible">
   <path d="m3.6719-23.922h7.6562v23.922h-7.6562zm0-9.3125h7.6562v6.2344h-7.6562z"/>
  </symbol>
  <symbol id="i" overflow="visible">
   <path d="m27.734-14.562v14.562h-7.7031v-11.156c0-2.0625-0.046875-3.4844-0.14062-4.2656-0.085937-0.78125-0.24219-1.3594-0.46875-1.7344-0.30469-0.5-0.71094-0.88281-1.2188-1.1562-0.51172-0.28125-1.0938-0.42188-1.75-0.42188-1.5938 0-2.8516 0.61719-3.7656 1.8438-0.90625 1.2305-1.3594 2.9375-1.3594 5.125v11.766h-7.6562v-23.922h7.6562v3.5c1.1445-1.3945 2.3633-2.4219 3.6562-3.0781 1.3008-0.66406 2.7383-1 4.3125-1 2.7578 0 4.8516 0.85156 6.2812 2.5469 1.4375 1.6875 2.1562 4.1523 2.1562 7.3906z"/>
  </symbol>
 </defs>
 <g>
  <path d="m213.65 65.859c-1.8203 2.8438-3.2305 5.8555-4.3242 9.4414 1.5312-2.5977 2.8438-4.8555 4.1641-7.1133 0.11328 0.050781 0.21875 0.11328 0.32422 0.16797-0.13281 0.61328-0.26172 1.2266-0.40234 1.8359-0.027344 0.11328-0.050781 0.23438-0.078125 0.35156-3.7461 16.484-4.6992 33.484-3.0625 50.312l3.4492 35.488c0.33984 3.4844 0.55078 6.9844 0.78906 10.484 1.1562 17.273 8.4688 33.582 22.164 49.57 0.39453 0.45312 0.75391 1.0938 0.91797 1.6445 4.8125 15.156 11.875 27.387 21.613 37.391 14.641 15.043 32.016 22.996 50.277 23.004h0.035156c18.184 0 35.488-7.8906 50.059-22.828 9.3281-9.5625 16.238-21.254 21.141-35.734 0.54297-1.6094 1.5664-3.3867 2.8008-4.8906 14.184-17.211 21.121-34.746 21.105-53.367 0-1.2852 0-2.582 0.015625-3.875l0.26953-64.453c-0.31641-2.1445-0.64062-4.3047-0.94531-6.5117 0.33984 0.875 0.66406 1.7148 0.99609 2.5391 0.58594 1.4883 1.1445 2.9141 1.6523 4.3398 0.78906 2.1953 1.4609 4.418 2.1875 6.6406 0.050781-0.42188-0.007813-0.80469-0.085937-1.1797-1.4453-6.9727-3.1602-13.859-6.2305-20.336-0.23438-0.50781-0.48047-1.0156-0.69141-1.5312-0.007812-0.007812-0.007812-0.015625-0.007812-0.015625-0.42188-0.94531-0.8125-1.8984-1.1641-2.8594-1.0156-2.7578-2.0312-5.5312-3.0352-8.2969-0.76172-2.1016-1.5312-4.207-2.293-6.3086-0.14062-0.38672-0.28906-0.75391-0.42187-1.1367 0.14844-0.085937 0.30469-0.16797 0.46484-0.25391 2.5898 4.0938 5.1992 8.1914 7.7891 12.285-0.39453-1.375-0.89062-2.7461-1.4453-4.0781-2.3555-5.7148-5.3906-10.973-9.9648-15.234-0.96094-0.89062-1.8281-1.8828-2.5547-2.957-4.6211-6.8789-10.176-12.723-17.77-16.266-0.21875-0.11328-0.44531-0.21875-0.66406-0.30469-3.4922-1.5469-7.0156-3.0195-10.527-4.5156-0.88281-0.375-1.7578-0.75391-2.6328-1.1367 1.7852 0.14062 3.543 0.33984 5.2852 0.60547 9.9297 1.4805 19.312 4.8125 28.41 9.1172-0.35937-0.36719-0.74219-0.64062-1.1445-0.91016-10.93-7.3867-23.137-11.078-36.102-12.609-0.5-0.050781-1.0078-0.11328-1.5039-0.15625-4.3477-0.42188-8.7422-0.57031-12.898-2.2305-1.6172-0.65625-3.3672-1.0078-5.082-1.4453-1.9688-0.50781-3.9453-0.99609-5.9141-1.4805-0.48047-0.12109-0.94531-0.22656-1.4258-0.35156 0.027344-0.24609 0.015625-0.16797 0.042969-0.41016h22.434c-0.16797-0.4375-0.375-0.57031-0.58594-0.60547-9.7578-1.4102-19.539-2.457-29.418-1.5664-3.3789 0.30469-6.7188 0.45312-10.09-0.007812-1.4805-0.21094-2.9922-0.26172-4.4883-0.39453-0.007812-0.25391-0.007812-0.17578-0.015625-0.42969 7.3242-1.3633 14.648-2.7305 22.391-4.1719-7.7695 0.19141-15.094 0.69922-22.34 1.9844-4.043 0.71875-7.9961 2.0117-12.059 2.5391-5.8008 0.75391-11.672 1.0586-17.543 1.5469 11.602-5.5312 24.02-7.918 36.68-9.3281-2.3789 0.0625-4.7617-0.042969-7.1211 0.085937-8.7656 0.45312-17.457 1.4883-25.953 3.8047-7.0352 1.9258-13.719 4.6094-19.469 9.2852-1.0938 0.88281-2.4062 1.4961-3.6211 2.2305-0.12109-0.18359-0.24609-0.36719-0.36719-0.55859 2.6406-1.9062 5.1875-3.9805 7.9453-5.7031 2.8164-1.7578 5.7852-3.2969 8.7852-4.7148 2.9062-1.3633 5.9336-2.457 8.9062-3.668-5.8984 1.4961-11.578 3.5703-17.035 6.2578-10.84 5.3203-18.996 14.203-28.367 21.465-0.015626 0.015626-0.035157 0.042969-0.050782 0.0625-0.61328 0.98047-1.2695 1.9336-1.8008 2.957-0.78906 1.5156-1.3906 3.1328-2.293 4.5664-0.40234 0.65625-1.2852 1.1016-2.0469 1.4258-1.5312 0.62891-3.1836 0.99609-4.6914 1.6719-8.0781 3.6211-12.828 9.9414-14.848 18.453 1.9336-3.8672 4.3828-7.332 7.9609-10.473-0.97266 3.332-1.7773 6.293-2.7109 9.2031-0.42969 1.2812-1.0352 2.5039-1.7695 3.6406zm19.574 91.188 0.085938-1.0586c0.070312-0.91016 0.16797-2.1602 0.30469-2.9648 4.5156-1.5039 7.1836-5.8281 7.332-11.934 0.10547-4.3398 0.13281-8.7344 0.17578-12.977 0.042968-4.7344 0.085937-9.5625 0.21875-14.375 0-8.0664 6.5469-14.559 14.559-14.559 0.14062 0 0.28906 0 0.42969 0.007812l7.3047 0.21875c6.0195-0.48828 12.102-0.42969 18.148-0.50781 5.418-0.070313 10.84-0.015626 16.258-0.015626h15.969c5.8203 0 11.629 0.015626 17.449-0.007812 4.2969-0.015625 8.5938-0.085938 12.891-0.10547 3.7188-0.027343 7.4297-0.007812 11.148-0.015625 3.6133-0.007812 7.1836-0.070312 10.727 1.0078 4.1055 1.25 7.168 3.668 8.9336 7.4531 1.1367 2.4219 1.6641 5.1445 2.4414 7.6484 0.042969-0.042969 0.085938-0.10547 0.13281-0.14844 0.11328 4.1289 0.11328 8.3398 0.10547 12.672-0.007813 3.7695-0.015626 7.6641 0.0625 11.551 0.027343 1.0312 0.015624 2.0742 0.007812 3.1953v2.1797c0 4.3398 3.1055 8.0781 7.3867 8.8477 0.16797 0.80469 0.28906 1.9258 0.33203 2.3789 1.7656 16.633-3.4844 31.754-16.52 47.582-2.6875 3.2734-4.7852 6.9922-6.0742 10.77-3.9805 11.777-9.4844 21.168-16.828 28.691-10.973 11.242-23.652 17.195-36.688 17.195h-0.027344c-13.109-0.007813-25.863-6.0117-36.906-17.359-7.6562-7.875-13.281-17.691-17.195-30.012-0.91797-2.9219-2.5391-5.8203-4.543-8.1562-13.414-15.66-19.012-30.668-17.621-47.203z"/>
  <path d="m562.17 455.66c-0.23438-6.0391-0.17578-12.102-0.11328-17.973 0.027344-2.6328 0.050781-5.2773 0.050781-7.9102l0.007813-6.832v-1.9258c-0.015626-7.332-0.027344-14.902 0.042968-22.398-9.3281-2.2656-18.734-4.6289-27.852-6.9141-7.4375-1.8633-15.137-3.7891-22.699-5.6523-0.54297-0.13281-1.2617-0.14062-1.7422-0.015625-7.4297 1.8281-14.988 3.7188-22.297 5.5469-9.2852 2.3281-18.863 4.7148-28.352 7.0156l0.027344 6.2812c0.085937 16.879 0.18359 34.336-0.0625 51.539-0.17578 12.031 3.5703 22.496 11.418 32.023 9.5977 11.645 22.355 20.766 40.074 28.641 15.086-6.5781 27.039-14.621 36.539-24.57 10.59-11.094 15.48-23.152 14.957-36.855zm-12.391-22.59-28.535 48.59c-5.2344 8.918-17.484 10.484-24.789 3.168l-22.855-22.855c-5.0469-5.0469-5.0469-13.23 0-18.277 5.0469-5.0469 13.23-5.0469 18.277 0l13.668 13.668 21.953-37.379c3.6133-6.1523 11.531-8.2148 17.684-4.6016 6.1523 3.6172 8.2109 11.535 4.5977 17.688z"/>
  <path d="m596.57 455.29c-0.14062-3.7031-0.18359-7.4805-0.17578-11.262h0.14062l-0.007812-28.234c-0.015626-9.2383-0.035157-18.797 0.0625-28.121 0.13281-11.391-6.3594-19.785-17.359-22.453-10.711-2.5977-21.641-5.3281-32.199-7.9727l-4.707-1.1797c-7.9883-2.0039-16.25-4.0703-24.387-6.0625-4.6719-1.1562-9.7812-1.1562-14.375-0.027344-8.9414 2.1953-17.84 4.418-26.117 6.4922-10.254 2.5625-23.012 5.7578-35.168 8.6992-11 2.6523-17.535 11.129-17.484 22.68l0.050782 10.047c0.10547 19.336 0.21094 39.324-0.078125 58.895-0.28125 20.117 6.1875 38.332 19.215 54.164 14.062 17.062 32.305 30.125 57.41 41.117 2.7734 1.207 5.9414 1.8477 9.1719 1.8477 3.3086 0 6.625-0.67188 9.582-1.9414 21.191-9.125 38.148-20.527 51.844-34.879 17.188-18.016 25.457-38.812 24.582-61.809zm-39.086 48.973c-12.188 12.773-27.52 23.152-46.805 31.676-22.688-10.203-39.07-21.98-51.406-36.941-10.062-12.207-14.84-25.621-14.621-41.004 0.32422-22.883 0.20312-46.086 0.078124-68.539l-0.035156-6.3945c11.961-2.9062 24-5.9219 35.691-8.8477 9.7461-2.4414 19.828-4.9609 29.758-7.4023 0.22656-0.050782 0.80469-0.070313 1.2148 0.027344 9.8359 2.4219 19.836 4.9258 29.516 7.3516 11.707 2.9297 23.766 5.9492 35.777 8.8906-0.070313 9.2852-0.050782 18.629-0.035157 27.703v0.51562l-0.003906 11.328c0 3.4922-0.035156 6.9922-0.070313 10.492-0.078124 7.7969-0.15625 15.863 0.14844 23.922 0.67969 17.527-5.6094 32.969-19.207 47.223z"/>
  <path d="m427.11 524.88c-16.414-19.934-24.562-42.938-24.219-68.371 0.28125-19.453 0.18359-39.297 0.078125-58.484l-0.050782-10.055c-0.097656-21.719 13.336-39.016 34.223-44.055 8.6172-2.082 17.535-4.2891 25.637-6.3086-14.395-10.691-32.094-18.27-53.27-22.637-12.434-2.5742-29.164-21.281-36.285-36.523l-3.7969 2.8281c-17.875 14.41-38.484 21.988-60.34 22.059-21.859-0.0625-42.473-7.6484-60.348-22.059l5.5312 4.4883c-3.1836-2.2305-6.3008-4.6719-9.3281-7.3164-7.1211 15.242-23.852 33.957-36.285 36.523-54.766 11.285-87.656 42.723-94.516 99.422l-10.695 104.75c-0.33984 6.6836 0.46484 7.832 6.625 10.211 2.9219 1.1289 5.8711 2.2148 8.8477 3.1953 27.133 8.918 55.176 13.625 83.484 15.984 35.57 2.9766 71.262 4.4961 89.609 5.6016 61.977-0.53516 106.49-2.3906 150.68-8.8828 1.375-0.20312 2.7383-0.4375 4.1055-0.64844-7.2422-6.0195-13.77-12.547-19.684-19.719z"/>
  <use x="70" y="691.25" xlink:href="#m"/>
  <use x="102.109375" y="691.25" xlink:href="#e"/>
  <use x="123.683594" y="691.25" xlink:href="#d"/>
  <use x="153.355469" y="691.25" xlink:href="#b"/>
  <use x="182.878906" y="691.25" xlink:href="#c"/>
  <use x="203.792969" y="691.25" xlink:href="#d"/>
  <use x="233.464844" y="691.25" xlink:href="#a"/>
  <use x="280.011719" y="691.25" xlink:href="#h"/>
  <use x="311.328125" y="691.25" xlink:href="#g"/>
  <use x="355.078125" y="691.25" xlink:href="#f"/>
  <use x="388.9375" y="691.25" xlink:href="#e"/>
  <use x="410.515625" y="691.25" xlink:href="#b"/>
  <use x="440.039062" y="691.25" xlink:href="#l"/>
  <use x="459.070312" y="691.25" xlink:href="#b"/>
  <use x="488.59375" y="691.25" xlink:href="#c"/>
  <use x="524.738281" y="691.25" xlink:href="#k"/>
  <use x="560.265625" y="691.25" xlink:href="#a"/>
  <use x="591.582031" y="691.25" xlink:href="#a"/>
  <use x="622.898438" y="691.25" xlink:href="#j"/>
  <use x="637.894531" y="691.25" xlink:href="#i"/>
 </g>
</svg>
