<?xml version="1.0" encoding="UTF-8"?>
<svg width="700pt" height="700pt" version="1.1" viewBox="0 0 700 700" xmlns="http://www.w3.org/2000/svg">
 <path d="m541.41 47.488h-382.93c-30.184 0-54.711 24.527-54.711 54.824v355.6c0 30.184 24.527 54.711 54.711 54.711h382.93c30.184 0 54.711-24.527 54.711-54.711v-355.6c0-30.129-24.641-54.824-54.715-54.824zm-296.74 200.59c7.1133-6.1562 17.527-6.2695 24.527-0.22266l61.992 61.992v-180.26c0-10.414 8.3984-18.816 18.816-18.816 10.414 0 18.816 8.3984 18.816 18.816v180.27l61.992-61.992c8.0078-6.6641 19.824-5.7109 26.488 2.1836 5.9922 7.1133 5.8789 17.527-0.11328 24.527l-93.969 93.91c-7.4492 7.2227-19.039 7.2227-26.375 0l-93.91-93.969c-6.8906-7.8398-6.0508-19.656 1.7344-26.434zm274.51 163.52c0 20.777-16.855 37.52-37.633 37.52h-263.14c-20.777 0-37.633-16.742-37.633-37.52l0.003906-56.449c0-10.414 8.3984-18.816 18.816-18.816 10.414 0 18.812 8.3984 18.812 18.816v56.449h263.2v-56.449c0-10.414 8.3984-18.816 18.816-18.816 10.414 0 18.816 8.3984 18.816 18.816l-0.003906 56.449z"/>
</svg>
