<?xml version="1.0" encoding="UTF-8"?>
<svg width="700pt" height="700pt" version="1.1" viewBox="0 0 700 700" xmlns="http://www.w3.org/2000/svg">
 <path d="m350 75.941c-64.977 0-127.29 17.207-173.24 47.836-45.945 30.629-71.758 72.172-71.762 115.49 0.058594 30.383 12.824 60.152 36.871 85.965 24.043 25.812 58.414 46.641 99.238 60.145v98.895l103.36-81.883v0.003906c1.8438 0.011719 3.6875 0.011719 5.5312 0 64.977 0 127.29-17.211 173.24-47.84 45.949-30.629 71.762-72.176 71.762-115.49 0-28.672-11.32-56.84-32.824-81.668-21.504-24.828-52.43-45.449-89.676-59.785s-79.492-21.883-122.5-21.883z"/>
</svg>
