<?xml version="1.0" encoding="UTF-8"?>
<svg width="700pt" height="700pt" version="1.1" viewBox="0 0 700 700" xmlns="http://www.w3.org/2000/svg">
 <path d="m315 332.5v175c0 19.336-15.664 35-35 35h-175c-19.336 0-35-15.664-35-35v-245c0-110.95 66.711-215.46 175-245v77.664c-66.711 24.047-105 95.621-105 167.34v35h140c19.336 0 35 15.68 35 35zm280-35h-140v-35c0-71.715 38.289-143.29 105-167.34v-77.664c-108.29 29.539-175 134.05-175 245v245c0 19.336 15.664 35 35 35h175c19.336 0 35-15.664 35-35v-175c0-19.32-15.664-35-35-35z"/>
</svg>
